<svg xmlns="http://www.w3.org/2000/svg" viewBox="0 0 960 960">
    <path d="M301.997.7408c.628 0 1.256.0118 1.8838.0333l-.4075-.0123.4075.0123-.3805-.0113-.027-.001-.0386-.0005.0656.0015 452.3856 15.4888c30.396 1.0408 54.5618 25.7442 55.042 56.0467l.0074.92v796.0746c0 29.9176-23.1303 54.744-52.9731 56.8575l-442.7941 31.361a57 57 0 0 1-20.6276-2.3285l-81.1128-24.6936c-23.9985-7.306-40.3994-29.443-40.3994-54.529V66.0087c0-28.9609 21.717-53.3183 50.4884-56.6268l71.9019-8.2681a57 57 0 0 1 3.7544-.3064l.4701-.0251 1.5531-.0416Zm3.2237 63.2187v821.9589c0 .8006.027 1.601.081 2.3999.8344 12.353 7.874 22.8075 17.8713 28.5269l431.9633-30.5948c8.9005-.6304 15.799-8.0347 15.799-16.9575V73.2182c0-9.1624-7.2612-16.6765-16.4183-16.99L316.754 41.2379c-6.9925 5.1205-11.5333 13.3907-11.5333 22.7216Zm-14.6798-22.0213-62.4547 7.182c-8.5809.9867-15.058 8.2512-15.058 16.8886v809.9514c0 7.4818 4.8916 14.084 12.049 16.263l66.9513 20.3838c-3.757-6.8594-6.1196-14.6246-6.6814-22.9408a55.6078 55.6078 0 0 1-.1264-3.7478V63.9594c0-7.9351 1.9197-15.4219 5.3202-22.0212Z"/>
</svg>
