<svg xmlns="http://www.w3.org/2000/svg" viewBox="0 0 960 960">
    <path d="M979.4776 158.7648c5.4719.7489 9.3006 5.7917 8.5518 11.2636-.7489 5.4718-5.7917 9.3006-11.2636 8.5517-67.6847-9.2629-132.777 6.9588-195.6341 48.9364 2.2201 2.744 4.3013 5.6887 6.227 8.8316a108.9869 108.9869 0 0 1 5.079 9.2655c66.682-44.4065 136.4808-61.7788 209.04-51.8488 5.4718.7489 9.3005 5.7917 8.5517 11.2636-.7489 5.4718-5.7917 9.3006-11.2636 8.5517-68.9671-9.4384-135.2426 7.5827-199.2047 51.3503 4.8784 19.132 3.238 37.7185-5.4308 50.811-2.4402 3.6856-4.1824 5.5755-8.092 9.509l-.7473.7477-1.0098 1.0005c-1.2896 1.2707-2.7583 2.6952-4.5336 4.4016l-5.8726 5.6258-.2421.5403c-1.8356 4.1121-4.0103 9.761-6.2036 16.29l-.4043 1.2124c-5.5053 16.6344-10.2081 35.9467-13.2004 55.9468l-.1496.9778c-5.056 32.3328-21.8915 71.139-45.8403 106.2509-26.8936 39.4294-60.8682 71.8281-98.5408 90.9732-35.4912 18.0365-80.0959 28.4347-129.9025 32.7181-36.8555 3.1697-75.2002 2.667-103.0419-.4978l-2.8806-.3355c-13.0651-1.4384-27.0794-.1065-40.8741 3.3464-5.386 1.348-10.4121 2.9435-14.7785 4.6052-1.308.4978-2.4864.9756-3.488 1.4071l-.7173.3146c-.1986.0887-.377.17-.5323.242l-.3547.1675-.3362.1857c-6.8287 3.7143-14.7415 6.801-23.1516 8.5365l-.903.1808c-15.0143 2.9123-30.2782 1.3745-44.2702-7.2233a90.093 90.093 0 0 1-2.9409-1.8856l-266.582 216.9774c-6.5337 5.318-16.3126.6686-16.3126-7.7557V795.333a10 10 0 0 1 3.8382-7.876l238.9688-186.958c-1.2434-3.6982-2.1662-7.6603-2.7404-11.9505-.991-7.4053-1.0635-14.5042.0437-21.4568 1.4711-9.2382 4.9942-17.9209 10.9775-25.4247l.1052-.1304c.15-.1844.339-.4104.5621-.6727l.5489-.6393c.9731-1.125 2.3391-2.668 3.8693-4.3832l8.7324-9.738c1.076-1.2013 1.9882-2.2245 2.6219-2.946l.945-1.089c1.092-1.2679 2.108-2.4712 3.0502-3.614 2.1179-2.5692 3.7746-4.7424 4.7948-6.185l.3299-.4744.4193-1.338c.1298-.4231.269-.8832.4184-1.3819l.7314-2.4788c.2523-.8652 1.6788-5.858 3.1707-11.0597l.2135-.744a4373.279 4373.279 0 0 1 1.6535-5.7502l1.7623-6.0537c6.9046-23.4315 13.6509-43.4684 21.799-63.2695 17.861-43.4047 38.947-76.7044 66.6914-97.8014 37.9839-28.8833 65.9508-47.4382 98.1572-63.0368l2.0186-.9712c43.8344-20.9482 88.9381-32.1633 137.5607-32.1633l3.608-.0032c37.3237-.0652 63.4254-1.1495 80.7831-3.0321l1.6353-.1827c9.5306-1.0966 14.1325-2.026 18.4618-3.478l.7774-.2672.5383-.1922a72.517 72.517 0 0 0 1.0848-.4031l.4719-.181c2.234-.863 4.9038-1.9848 7.7323-3.2467l.814-.3649c3.002-1.3518 6.0651-2.8043 8.684-4.1088l1.3537-.6805c.8033-.408 1.514-.7774 2.0972-1.0888l.6655-.3605.2256-.144c12.6691-8.0296 29.1993-9.1326 44.307-5.3576 8.3723 2.092 16.3098 5.7163 23.5032 10.8085 67.9564-46.5101 139.1709-64.8387 213.2635-54.6989ZM252.166 585.827l-.0379.0165c-.4298.1994-1.0613.6551-1.856 1.442a10 10 0 0 1-.8742.77L-21.772 800.205v38.962l284.781-231.789.079-.228c1.1355-3.55-.458-8.8145-6.1414-16.5318l-.3084-.4158c-1.2905-1.7276-2.47-2.9707-3.478-3.744-.4607-.3535-.7863-.5426-.9826-.6268l-.0116-.0046Zm467.5708-343.9754-.3606.2378c-1.0499.6654-3.0673 1.765-5.669 3.0899l-1.047.5295-1.401.698c-2.3549 1.1637-5.0175 2.4345-7.7856 3.702l-1.6719.7593-.8761.3928c-3.5113 1.5667-7.091 3.0762-10.346 4.3142-11.2568 4.2814-29.733 10.1714-121.1086 10.1714-9.8373 0-19.391.5332-28.677 1.5372 3.7816 1.9395 6.0434 6.1652 5.2944 10.5754l-.5368 3.1882c-1.69 10.1272-2.9957 18.843-3.917 26.1274l-.1607 1.2882-.2045 1.6942c-.4595 3.8877-.7964 7.3178-1.0106 10.2868l-.044.6291c-.4306 6.3544-.5731 14.9194-.4225 25.6589 20.9662-12.7984 44.7515-26.3832 71.3586-40.758.4517-1.7862.6979-3.975.6979-6.5768 0-4.7447-.8107-11.9727-2.4577-21.5108-.9397-5.4423 2.7103-10.616 8.1526-11.5557 5.4424-.9397 10.616 2.7103 11.5558 8.1526l.2735 1.6072c1.258 7.5012 2.0408 13.784 2.3388 18.915 22.3954-11.8062 46.5938-24.1165 72.5973-36.9342 4.9537-2.4418 10.949-.4055 13.3908 4.5482 2.4418 4.9538.4055 10.949-4.5483 13.3908l-5.5148 2.7243c-19.2224 9.516-37.421 18.7418-54.5947 27.6766 4.2393 2.4562 8.7651 5.4835 13.6152 9.0535 16.804 12.369 31.176 26.8054 43.0853 43.288 3.2345 4.4765 2.2276 10.7276-2.249 13.9621-4.4766 3.2345-10.7277 2.2276-13.9622-2.249-10.6855-14.7888-23.5853-27.7464-38.73-38.8941-7.3929-5.4417-13.5874-9.1734-18.4471-11.1919-2.1012-.8727-3.8509-1.3812-5.2026-1.5633-.8543-.1152-1.3337-.0837-1.4987-.0288l-.2304.0735c-29.5646 15.798-55.7172 30.6258-78.4518 44.4781 11.0707 1.8461 21.1408 4.6263 30.2112 8.355l1 .4165c16.5452 6.9793 43.4658 22.5813 81.179 46.9634 4.638 2.9985 5.967 9.1891 2.9685 13.827-2.9985 4.638-9.1891 5.967-13.8271 2.9686l-4.446-2.8658c-35.1445-22.5816-60.1014-36.9015-74.4785-42.8117-13.5682-5.5776-30.2777-8.7603-50.1311-9.4637-6.2821 4.1306-12.217 8.1614-17.8072 12.0936-25.0662 17.6316-56.049 42.3152-92.922 74.0352-.072.1165-.145.2296-.2203.3411 10.9737-.0196 22.324.963 34.0465 2.941l1.3837.238c23.0013 4.0327 65.6706 15.1014 128.3502 33.2628 5.3047 1.537 8.359 7.0833 6.8219 12.388-1.537 5.3046-7.0833 8.3589-12.388 6.8219l-5.6348-1.6291c-60.1313-17.3456-100.862-27.8174-121.8605-31.3604-20.2822-3.4221-39.08-3.5394-56.4295-.3941-24.0316 21.2153-50.2382 45.0297-78.6132 71.4391-4.0427 3.7628-10.3703 3.5358-14.133-.507-3.7627-4.0427-3.5357-10.3703.507-14.133l5.15-4.787c34.3872-31.9199 65.575-60.003 93.5738-84.2558-2.1075-11.9727-3.799-22.3639-5.076-31.1992l-.1917-1.3365c-1.5707-11.0373-2.4706-19.5593-2.7011-25.6186l-.0871-2.4698c-.5848-17.9995.0149-33.521 1.399-46.4507l.0955-.8775c.3261-2.9434.6744-5.5592 1.0285-7.843l.1775-1.1143c.2591-1.583.4705-2.6986.6081-3.3392 1.1605-5.3995 6.4784-8.836 11.878-7.6756 5.308 1.1408 8.719 6.2994 7.7306 11.6035l-.1486.7519c-.0974.514-.2087 1.1442-.3306 1.8895l-.1542.9686c-.283 1.8261-.5661 3.9293-.8373 6.306l-.0736.655c-1.3487 12.1722-1.9507 27.0422-1.383 44.4933l.0827 2.342c.3198 8.4072 2.2113 23.0528 5.6698 43.7434 32.4545-27.5493 60.173-49.4083 83.1751-65.588 5.546-3.901 11.4144-7.8917 17.6057-11.9723 1.353-1.7384 3.2644-3.0167 5.4593-3.568.9455-.6118 1.899-1.227 2.8596-1.8442-.2078-7.2282-.3159-13.7496-.323-19.5717l.0004-1.5067.0066-1.778c.0351-6.142.1938-11.4299.4776-15.8728l.0413-.629c.6988-10.3112 2.7355-25.3396 6.1102-45.2105.3931-2.3147 1.5523-4.3076 3.1734-5.763-71.4738 10.8607-126.735 49.3756-173.598 85.0106-55.2404 42.0052-78.6106 163.524-84.9854 175.5913-5.5473 10.5007-21.2755 26.9715-28.017 34.5214l-.4884.5493c-.628.7094-1.1614 1.326-1.581 1.8347l-.2842.35c-.9953 1.2483-1.7477 2.7593-2.257 4.533 11.3193-9.3715 24.3783-6.2254 34.3286 7.0962 11.1412 14.9158 14.1244 28.8997 6.8215 40.7972a10 10 0 0 1-1.8779 2.2419c6.2898-.5963 12.32-3.2025 15.8439-5.136l.2093-.1156.1848-.1014c6.4125-3.4752 43.8219-19.422 85.317-14.426l1.2758.15c42.7076 4.9087 144.947 5.3477 210.7358-28.086 66.4532-33.7714 115.496-117.6829 123.093-168.4611 7.597-50.7782 23.7862-88.8503 27.8248-92.944.775-.7855 1.886-1.8679 3.186-3.12l7.3035-7.0009c1.2345-1.1886 2.4341-2.3514 3.521-3.421l.902-.8925.6658-.6661c1.573-1.5825 2.7276-2.8156 3.1105-3.3938 1.4889-2.2487 4.5135-16.762-7.5268-36.4128-12.0402-19.6508-30.7556-17.3078-33.5149-15.3942Z"/>
</svg>
