<svg xmlns="http://www.w3.org/2000/svg" viewBox="0 0 960 960"><path d="m322.8703 158.8059-.0318-.0012.8937.0313 10.0524.3519.6483.0227.3248.0113.7213.0253a2143502.0802 2143502.0802 0 0 0 44.0566 1.5414c36.8454 1.2887 73.1495 2.5575 107.4065 3.7532l9.7353.3398c60.53 2.1122 107.2385 3.7368 135.272 4.7038l2.697.093c16.258.5602 25.5866.8765 26.9027.911a40.354 40.354 0 0 1 5.114.459l.1339.0226.5948.0288.666.0326c.516.0254 1.6207.08 2.1245.105l.0747.0046 1.3202.0476c49.1533 1.8113 91.4409 5.9088 115.2532 11.4201l.7232.1692c67.8587 16.1626 114.0086 49.8591 140.322 104.4232 21.3569 44.1483 29.9565 101.1836 30.1243 190.542v.1502c-.166 88.6099-8.5912 145.4046-29.4873 189.3793l-.637 1.3287-.7465 1.5354c-26.373 53.6563-72.343 86.8755-139.4886 102.8697-23.7173 5.705-66.7611 9.8473-117.648 11.6701l.2545-.0095-.0437.0022c-.5186.0258-2.4185.1198-3.803.1872l-.1775.0087a3342.5 3342.5 0 0 1-10.325.4858 40.5636 40.5636 0 0 1-4.1038-.0202l-.217-.0147-.0495.0022c-10.4683.3656-28.538 1.0072-53.347 1.8935l-.8681.031-16.8368.602-4.397.1574-13.5848.4866-4.6444.1665-19.0636.6836-4.8663.1747-9.8274.3527c-30.5537 1.097-63.6013 2.2856-96.6474 3.4754l-7.9297.2855c-27.7451.999-55.3483 1.994-81.3307 2.9311l-4.1992.1515-2.7444.099-.3184.0115-2.0643.0745-2.5915.0935-1.036.0373-2.438.088c-50.8124 1.8201-94.2161.5008-118.4446-3.9914-51.5979-9.6677-91.0403-31.3814-118.7913-66.631l-.0266-.0331-.5792-.1887c-39.6415-13.202-69.1586-48.2463-74.3887-90.999l-.1726-1.4946C4.7967 582.3691 2 530.7922 2 479.1523c0-54.0372 3.0625-111.1255 9.1758-171.2732 5.079-49.9801 43.0935-89.3193 91.1662-97.3678l.588-.0943.2855-.266c25.8022-23.927 58.9325-39.3226 99.7622-47.1843l1.4443-.2743c24.0506-4.4594 67.2384-5.7197 118.4483-3.8865zm-44.1668 39.1948-.873.0018c-28.7133.0654-52.1463 1.4293-66.1161 4.0195-39.6602 7.4315-69.2488 22.6246-90.5388 46.9776l-.561.0004-.0203-.0004c-9.0664 10.4948-16.61 22.6908-22.7707 36.6999C79.856 326.692 72.1556 384.2689 72 478.0117c.1556 93.6504 7.856 151.227 25.8236 192.2195 3.3072 7.4914 7.0059 14.4644 11.1183 20.9361.1627.0262.3265.051.4904.0753 21.6787 33.6655 54.7062 53.7505 102.282 62.6647 14.2332 2.6389 38.2894 4.0479 67.7189 4.0916 12.2029-.013 25.3014-.263 38.9799-.7588l2.3987-.0875c.3121-.0114.6536-.024 1.0239-.0374l2.561-.0935 5.0667-.185 4.1497-.1515c10.1318-.3698 24.794-.9048 42.3415-1.5447-6.4443-119.5956-9.6679-211.4245-9.6679-275.5419 0-64.6945 3.2819-157.6016 9.8432-278.7755-30.435-1.0791-52.2038-1.8504-56.7555-2.0115l-.8835-.0313c-13.9844-.5066-27.358-.7646-39.7874-.7796zm117.0865 9.6569-.1667 3.1202c-6.2251 116.5114-9.3366 206.1351-9.3366 268.8208 0 63.756 3.2187 155.3776 9.6582 274.812a700.25 700.25 0 0 0 1.416-.0506c4.3947-7.6408 8.4736-20.1304 11.7124-37.532 5.3725-28.8653 8.0776-68.1168 8.9138-118.8288.058-3.5227.1073-6.9747.1482-10.4257l.0159-1.3805.0076-.6906.0146-1.3822.007-.692.0132-1.3861.0124-1.39c.058-6.7295.086-13.6292.0877-21.2031l-.0003-2.3727c-.0055-11.445-.0679-24.487-.1753-40.7686-.1034-15.6762-.148-23.0917-.164-29.5941l-.0015-.58-.0011-.5602c-.0008-.3725-.0015-.7434-.002-1.1141l-.0008-.5561-.0004-.2783-.0006-.5577-.0003-.2797-.0008-1.1275-.0004-1.7323c0-82.4389-1.1062-133.6305-5.3683-183.1313-2.7796-32.2822-6.7276-57.8573-11.9436-75.6627-1.5866-5.416-3.2282-9.892-4.8443-13.4761zm19.4111-5.454.1575.378c1.5978 3.8831 3.0816 8.1933 4.469 12.9295 5.6652 19.3384 9.7927 46.0766 12.6765 79.5696 4.2843 49.7578 5.4195 100.806 5.4418 182.3661l.0006 3.9187.0001.283.0008 1.1203.0003.278.0006.5543.0004.2766.0008.5529c.011 7.0952.053 14.2793.1682 31.7452.1053 15.9652.1675 28.8335.1753 40.1448v4.705c-.005 7.0257-.0333 13.4952-.0878 19.8205l-.0125 1.4-.0134 1.3962-.0143 1.3936a2158.6206 2158.6206 0 0 1-.0481 4.1741l-.0179 1.3926c-.006.4645-.0123.9294-.0188 1.3948l-.0196 1.3981a2346.0083 2346.0083 0 0 1-.0763 4.9334c-.8532 51.745-3.6227 91.9315-9.2487 122.1587-2.4241 13.0246-5.367 24.051-8.9444 33.0558 17.7789-.6487 36.7446-1.3394 55.8916-2.036l3.7495-.1365 3.7525-.1365 3.7538-.1365 4.3642-.1588c8.7262-.3173 17.4335-.6339 26.0272-.9461l9.7115-.3528 4.8094-.1746 18.8389-.6837a426527.1 426527.1 0 0 1 4.5907-.1665l13.4248-.4866 4.3463-.1575 16.6389-.602c26.5994-.9618 47.4747-1.712 57.5099-2.0631l-.0032.187c8.4163-.3879 13.7109-.6625 14.2706-.6883l.0413-.0018c19.9927-.7247 38.7368-1.8363 55.2586-3.2482 5.6664-7.352 10.5484-19.1338 14.5034-35.508 6.621-27.4112 9.9664-64.8174 11.0013-113.1798.0384-1.7952.0737-3.5714.106-5.3384l.0236-1.3238.0114-.661.0325-1.9802c.0104-.6597.0204-1.3192.03-1.979l.0186-1.3203c.1055-7.706.1555-15.5052.158-24.2447l-.0003-2.2863c-.007-10.9384-.0843-23.4048-.2176-38.9672-.1237-14.4616-.1797-21.5806-.2015-27.6523l-.002-.5577c-.0012-.37-.0022-.7368-.0032-1.1019l-.0014-.5464a1841.263 1841.263 0 0 1-.0031-1.6344l-.0008-.5468-.0003-.2745-.0007-.8289-.0005-1.6956c0-78.7985-1.372-127.7234-6.6512-174.969-5.368-48.0397-14.4971-79.506-25.2747-91.0145-14.856-1.1697-31.3039-2.1044-48.7083-2.7349l-.0752-.0034c-.5095-.0242-3.3422-.17-7.9636-.3912l.0002-.239c-5.5798-.1475-141.3735-4.942-238.3472-8.372zm320.1913 14.1079.2162.4466c1.3915 2.8843 2.7098 5.9733 3.9582 9.2572 7.1144 18.7137 12.2772 44.4849 15.8794 76.7225 5.3349 47.7446 6.7467 96.6641 6.7744 174.8128l.0008 3.7813.0002.2761.0007.8218.0003.2721.0008.5423c.0008.5413.0018 1.0802.003 1.6216l.0015.5424c.001.3624.002.7266.0032 1.094l.002.554.002.56c.0232 5.9149.0792 13.0084.1988 26.9788.1371 16.0176.2154 28.7812.2188 39.9871v1.5186c-.0024 7.5462-.04 14.404-.1178 21.1112l-.0162 1.3396c-.036 2.8988-.0798 5.776-.1316 8.6753l-.0245 1.34a1733.6914 1733.6914 0 0 1-.0948 4.7282c-1.0633 49.6898-4.517 88.3067-11.5557 117.4477-2.622 10.855-5.7335 20.2965-9.4232 28.294 11.703-1.4431 21.4477-3.0672 28.6482-4.82 56.0808-13.5184 91.7827-39.845 112.2393-82.9333 17.9676-37.5867 25.668-89.3905 25.8236-173.3641-.1556-83.8083-7.856-135.6119-25.8236-173.1982-20.5344-43.0901-56.1585-69.4136-112.2393-82.9307-8.384-2.0058-20.2038-3.8654-34.5447-5.479zm-644.2842 39.199-.6913.3261c-21.3965 10.2442-36.904 31.0708-39.446 56.0864C44.9903 370.7643 42 426.5074 42 479.1523c0 50.1963 2.7186 100.3318 8.1558 150.4066 2.2801 20.9909 13.686 38.9759 30.009 50.1787l-.6589-1.4775C60.197 634.2076 52.16 574.3213 52 477.9785c.16-96.3582 8.1948-156.25 27.5157-200.3303 3.4591-7.8656 7.3198-15.2414 11.5925-22.1378z"/></svg>
