<svg xmlns="http://www.w3.org/2000/svg" version="1.0" viewBox="0 0 512 512">
    <path d="M422.6 1.6C400.1 6 379.5 24.8 373 46.7l-1.3 4.3-155.6.2-155.6.3-7 2.3C27.5 62.6 9.3 81.5 2.4 107c-2.4 8.9-2.4 27.1 0 36 2.5 9.2 7.5 19.5 13.1 26.9 8.6 11.3 23.3 21.7 36.2 25.4l5.2 1.6 8.4-13.7 8.4-13.7-7.8-1.7c-9.8-2.1-14.3-4.4-21.6-11.2-18.4-17-18.6-45.5-.5-62.8 3.2-3.1 7.7-6.5 10-7.7 10.4-5.3 3.7-5.1 166.8-5.1h151.1l1.2 4.2c6 20.2 21.8 36.3 42.6 43.4 7.3 2.5 9.6 2.8 26.1 3.2 15.7.4 18.6.2 21.8-1.3 5.3-2.5 7.9-6.8 8.4-13.7l.4-5.8h14.2c16.3 0 19.6-1.1 23.3-7.6 2.9-4.9 2.9-9.6.1-14.5-3.6-6.5-7.9-7.9-24.1-7.9H472V51h14.1c10.9 0 14.9-.4 17.5-1.6 11-5.2 10.9-21.1-.1-26.4-3.5-1.7-6.2-2-17.8-2H472v-4.5c0-6.7-3.2-12.2-8.3-14.6C460.1.3 457.2.1 444.5.1c-8.4.1-18.1.7-21.9 1.5z"/>
    <path d="M163.1 129.1c-7.6 1.3-18.3 5.2-24.9 9.1-3.2 1.8-9.5 7.1-14.2 11.8-7.7 7.7-10.4 11.6-27.3 39.1C86.4 206 78 220.1 78 220.4c0 .3 80.3.6 178.4.6h178.5l-18.6-30.3c-10.2-16.6-20.7-32.9-23.4-36.3-8.9-10.9-22.2-19.4-37.4-24-5.6-1.7-12.7-1.8-96.5-2-50.9-.1-92.9.2-95.9.7zM66.5 251.7c-17.1 2.4-33.3 10.9-45.6 24C14.7 282.3 7 293.5 7 295.9c0 .7 2.7 1.1 7.8 1.1 16.8 0 33.7 7.5 47.3 21 14 13.8 20.7 28.6 21.6 47.5.4 8.9.2 10.4-1.6 13.3-1.2 1.8-3.5 4.1-5.3 5.2-3.1 1.9-5.1 2-40 2H0v2.8c0 4.5 2.8 14.1 5.7 19.4 3 5.4 10.1 13 15.3 16.3 1.9 1.2 6.2 3.3 9.5 4.6l6 2.4 214 .3c140.4.1 215.8-.1 219.5-.8 13.5-2.4 27.6-13.1 33.3-25.2 2.8-5.9 5.2-16.1 4.3-18.4-.5-1.2-6.3-1.4-37.4-1.4-36.7 0-36.9 0-40.3-2.3-6.9-4.6-8.5-13.1-5.3-28.5 2.1-10.1 5.2-17.7 10.9-26.2 12.9-19.3 35.7-32 57.8-32 9 0 8.9.4 3.4-8.9-9.5-15.9-25.5-28-45.4-34.4l-6.8-2.2-187.5-.1c-103.1-.1-188.8.1-190.5.3zM377 297.8c4.5 2.4 8.3 9.3 7.7 14.2-.5 3.7-20.3 47.6-24.5 54.4-3.4 5.4-10 11.6-15.9 14.8-10.4 5.7-11.3 5.8-89.9 5.8-44.3 0-74.2-.4-77.4-1-11.6-2.2-22.5-9.2-28.5-18.4-1.9-2.8-8.4-16.1-14.6-29.5-10-21.8-11.1-24.8-10.7-28.6.6-5.3 4-10.3 8.2-12.1 2.5-1.1 24.5-1.3 122.6-1.4 113.8 0 119.7.1 123 1.8z"/>
    <path d="M162.5 328.1c.4 1.2 2.8 6.7 5.5 12.3 5.1 10.9 8.8 15.1 14.3 16.1 1.8.3 35.2.5 74.4.3 69.5-.3 71.2-.3 74-2.3 1.8-1.3 5-6.5 9-14.5 3.4-6.9 6.2-12.8 6.3-13.3 0-.4-41.4-.7-92.1-.7h-92l.6 2.1zM5.6 329.1C1.3 332.4 0 336.7 0 347v9h52l-1.5-3.8c-5.8-13.9-20.3-24.3-35-25-6.1-.3-7.4-.1-9.9 1.9zM483.5 328.4c-12.1 3.8-22.3 12.9-26.8 23.8l-1.6 3.8h52.1l-.4-11.1-.3-11.1-3.7-3.4c-3.4-3.1-4.3-3.4-9.5-3.3-3.2 0-7.6.6-9.8 1.3zM482.5 458.8l-8 2.6-52.9.4-52.9.3.5 9.7c.8 13.8 3.3 19.9 11.7 28.3 4.8 4.8 8.2 7.2 12.6 9 5.9 2.4 6.6 2.4 37 2.4s31.1 0 37-2.4c4.4-1.8 7.8-4.2 12.6-9 9.2-9.2 11.1-14.4 11.7-31.4.2-7 0-12.6-.4-12.6-.5.1-4.5 1.3-8.9 2.7zM20.3 469.7c.6 13.3 2.2 18.7 7.7 26.1 4.3 5.7 12 11.6 18 13.9 6.7 2.5 58 3.2 67.2.8 12.1-3.1 20.9-10.3 26.2-21.5 2.6-5.6 3.1-7.9 3.4-16.7l.4-10.2-54.8-.4c-47.8-.3-55.6-.5-60.4-2-8.8-2.7-8.3-3.3-7.7 10z"/>
</svg>
