<svg xmlns="http://www.w3.org/2000/svg" version="1.0" viewBox="0 0 512 512">
    <path d="M391.5 22c-21.3 3.3-42.7 14.2-58.4 29.7-45 44.5-40.1 119.2 10.3 157.5 42.4 32.1 100.8 28.2 137.9-9.3 13.4-13.6 22.4-29.7 28-49.9 2.9-10.9 2.9-37.1 0-48-5.7-20.6-14.8-36.7-28.6-50.4C467.1 38 451 28.9 432 24.1c-9.7-2.5-30.7-3.6-40.5-2.1zm49.1 77.6c6.2 3 9.3 9.6 7.9 17.1-.5 3-3.2 6.3-14.8 18.1-7.8 8-17.7 17.5-22 21.3-7.5 6.7-7.9 6.9-13 6.9-3.2 0-6.2-.6-7.7-1.6-4.8-3.2-24.2-23-26.1-26.6-6.4-12.5 5.5-25.7 18.8-20.7 1.5.5 5.5 3.7 8.8 6.9l6 6 11.5-11.6c17-17.2 22.1-19.8 30.6-15.8z"/>
    <path d="M137 62.4c-18.5 5.2-30 20.9-30 41.2v7.2l-20.7.4c-19.6.4-21.2.6-27.6 3.1-15.3 6-26.4 17.3-31.9 32.7l-2.3 6.5-.3 73-.3 73.1-10.6 9.9c-5.8 5.4-11.2 11.4-11.9 13.2C.3 325.3 0 336.4 0 379.1c0 52.8 0 53.2 2.2 57 3.5 6.3 8.1 7.9 22.5 7.9h12l.6-6.8c2.7-28.3 21.1-53.6 47.2-64.5 21.2-8.8 47.2-7.4 67 3.8 22.2 12.5 37.3 35.5 39.2 59.5l.6 8h128.6l.6-5.8c2.5-21 10.4-37.5 24.4-50.4 15.2-14 32.4-20.8 52.6-20.8 20.2 0 37.4 6.8 52.6 20.8 14.1 13 21.9 29.2 24.4 50.5l.6 5.7h12.2c14.9 0 19.4-1.7 22.6-8.4 1.9-3.8 2.1-6.1 2.1-23.7 0-22.9-1.2-29.8-7-41.7-6.9-14-20-26.1-33.9-31.3-3.1-1.1-15.7-4.8-28.1-8.2l-22.5-6.2-134-.5-134-.5-7.9-2.2c-9.5-2.8-24.9-9.9-31.9-15-2.9-2-13.3-11.7-23.2-21.4l-18-17.8-7.5 4.6c-4.1 2.5-8.1 4.7-8.7 5-1.8.7-1.9-114.1-.1-120.1 1.6-5.4 9-12.8 14.4-14.4 2.5-.7 10.5-1.2 20.6-1.2h16.6l.4 9.2c.8 15.8 7.1 27.2 18.8 34.4 9.6 5.8 13.8 6.4 48.3 6.4 29.6 0 31.1-.1 34.7-2.1 4.7-2.7 8-8.4 8-13.8V171h19c22 0 24.8-.8 28.8-7.8 2.7-4.9 2.8-9.1.2-14.2-3.6-7.1-6.9-8-29-8h-19v-30h19c17.1 0 19.5-.2 23-2 4.5-2.3 8-8 8-13s-3.5-10.7-8-13c-3.5-1.8-5.9-2-23-2h-19v-4c0-5.9-3.3-11.6-8-14-3.7-1.9-5.7-2-35.7-1.9-22.2.1-33.2.5-36.3 1.3zm140 293.9c10.3 5.4 10.7 19.6.8 25.7-3 1.8-5.1 2-21.8 2-16.7 0-18.8-.2-21.8-2-9.9-6.1-9.5-20.3.8-25.7 4-2.1 5.6-2.3 21-2.3s17 .2 21 2.3z"/>
    <path d="M191.5 232.1c-20.8 1.4-41.3 5.1-62.5 11.4-13.6 4-28 9.4-28 10.4 0 .5 6.2 6.9 13.8 14.3 12.1 11.9 14.9 14 22.9 18.1 16.4 8.1 10.6 7.8 125.4 7.5l101.6-.3-11-8.9c-32.2-26.2-63.8-41.3-102.3-49.1-20.2-4.1-35.9-5-59.9-3.4zm-88.7 166c-6.8 1.6-16.1 7-21.9 12.8-18.5 18.5-18.4 47.5.1 66.1 23.2 23.2 61.5 16.4 75.6-13.5 4.6-9.5 5.7-21.1 3-31.5-4.1-15.9-17.4-29.4-33.1-33.5-6.4-1.6-17.7-1.8-23.7-.4zm280 1.2c-12.9 4.4-22.1 12.6-27.7 24.8-16.3 34.9 14.5 73.7 52.1 65.8 18.5-3.9 33.9-20.2 36.8-39.2 1.9-12.4-2.3-27.2-10.5-37.3-11.5-13.9-33.3-20-50.7-14.1z"/>
</svg>
