<svg xmlns="http://www.w3.org/2000/svg" version="1.0" viewBox="0 0 512 512">
    <path d="M100 8.6c-41.6 6.1-73.4 32.1-86.7 70.9-16.2 47.7 6.1 101.9 51.4 124.9 30.1 15.3 64.6 15.3 94.4 0 11.3-5.8 16.7-9.8 25.7-18.6 14.9-14.7 23.9-31.2 29.4-53.8 1.7-7.1 1.7-31.6 0-39.5-4.9-22.8-17.1-44.1-33.7-58.6-14.8-12.9-32.5-21.3-52-24.4-8.2-1.4-22.3-1.8-28.5-.9zm37.5 25.9c1.4 1.3 2.5 3.4 2.5 4.5 0 1.2-2.7 11.5-6 23s-6 21.1-6 21.4c0 .4 7.9.6 17.5.6 17.5 0 17.6 0 20.1 2.6 2 1.9 2.5 3.3 2.2 5.7-.6 4.8-66.1 98.5-69.4 99.3-3.6.9-7.2-.3-9-3.2-1.6-2.3-1.5-3.9 1.5-27.2 1.8-13.6 3.5-25.7 3.8-27l.5-2.2H78.1c-16.9 0-17.2 0-19.6-2.5-1.4-1.3-2.5-3.3-2.5-4.5 0-1.1 5.6-21.7 12.5-45.8 9.6-33.6 13-44.1 14.6-45.5 1.9-1.5 4.8-1.7 27.1-1.7h24.9l2.4 2.5z"/>
    <path d="M92.1 54.7c-3.4 11.6-15.9 55.7-16.6 58.5l-.7 2.8h16.1c15.9 0 16.2.1 18.6 2.5 2.9 2.8 3 3.2.9 17.6-.8 6.1-1.4 11.9-1.2 12.9.2 1 6.9-7.7 17.3-22.8 9.4-13.4 17.2-24.8 17.3-25.3.2-.5-5.9-.9-13.7-.9-15.4 0-18.3-.7-20.1-5-1-2.5-.4-5.7 4.9-24.2 3.4-11.7 6.1-21.7 6.1-22.1 0-.4-6.1-.7-13.5-.7H94.1l-2 6.7zm212.4 18c-7.4 1-19.6 4.8-27 8.4-11.1 5.4-18.9 11.6-33.7 26.7C232 119.6 231 121 231 124.4c0 9.8-6.3 30.8-13.2 43.6-17.4 32.6-49.6 56.1-85.1 62.1-4.2.7-7.7 1.8-7.7 2.4 0 1 13.9 14.9 47.6 47.8 12.5 12.2 14.4 13.7 17.5 13.7 3.1 0 7.7-4.4 66.4-63l63-63H339l7.5 15c4.1 8.2 8.3 15.4 9.4 16 1.1.5 6 1 11 1h9.1v-17.5c0-17.3 0-17.6 2.5-20 3.2-3.3 7.8-3.3 11 0 2.5 2.4 2.5 2.7 2.5 20V200h16v-17.5c0-17.3 0-17.6 2.5-20 3.2-3.3 7.8-3.3 11 0 2.5 2.4 2.5 2.7 2.5 20V200h13.5c13.1 0 13.7-.1 16-2.5l2.5-2.4V76.9l-2.5-2.4-2.4-2.5-71.8.1c-39.5.1-73.1.4-74.8.6zM472 136v40h13.5c13.1 0 13.7-.1 16-2.5l2.5-2.4v-70.2l-2.5-2.4c-2.3-2.4-2.9-2.5-16-2.5H472v40z"/>
    <path d="M111.9 284.8C90.3 306.7 86.5 311.6 83 322c-9.5 28.3 6.1 58.2 35.5 68.1 3.3 1.1 33.6 1.5 163.6 1.9l159.5.5 7.6 3.7c9.1 4.5 14.7 10.3 19.1 19.6 2.9 6.1 3.2 7.6 3.2 16.2s-.3 10.1-3.2 16.2c-4.4 9.3-10 15.1-19.1 19.6l-7.6 3.7-214.9.5-214.9.5-1.9 2.4c-1.6 2-1.9 4-1.9 13.3 0 10.3.1 11 2.5 13.4l2.4 2.4 216.3-.2 216.3-.3 7.7-2.6c12-4.1 20.4-9.4 29.4-18.3 9-9 14.3-17.5 18.2-29.4 2.2-6.7 2.6-9.4 2.6-21.2 0-11.8-.4-14.5-2.6-21.2-3.9-11.9-9.2-20.4-18.2-29.4-9-8.9-17.4-14.2-29.4-18.3l-7.7-2.6-159.6-.5-159.5-.5-4.2-2.8c-5.6-3.6-9.1-9.2-9.9-15.4-1-9.3 0-10.9 22.8-33.8l20.9-21-10.3-10.1c-5.6-5.5-10.9-10.6-11.8-11.2-1.3-1-4.7 2-22 19.6z"/>
</svg>
