<?xml version="1.0" encoding="utf-8"?>
<svg xmlns="http://www.w3.org/2000/svg" viewBox="0 0 512 512"><path d="m136 412-12.627 50-6.311 22.996L87 512h127l19-95h50v95h126l-28.972-25.289L379 465v-53c15.964-.329 38.006-4.23 48.671-17.004 8.585-10.282 8.237-23.387 9.498-35.996 2.743-27.438 5.829-55.416 5.831-83 .002-24.593 1-49.328 1-74 0-14.189 1.453-28.582-4.015-42-7.94-19.483-24.346-31.214-39.985-44.247-21.942-18.287-43.694-36.895-65-55.919-15.305-13.665-30.898-27.032-46-40.92-8.406-7.73-16.817-17.28-29-17.874-17.196-.837-25.75 7.89-38 18.675-15.062 13.26-29.855 26.831-45 40.003-21.254 18.485-42.372 37.15-64 55.202-14.402 12.021-30.114 22.89-38.73 40.08-8.088 16.137-6.27 33.493-6.27 51 0 28.304-.849 56.847 1.83 85 2.179 22.892 3.24 46.045 5.084 69 1.224 15.225 1.949 30.299 15.087 40.471 12.231 9.47 31.194 9.658 45.999 11.529z"/></svg>
