<svg xmlns="http://www.w3.org/2000/svg" viewBox="0 0 960 960">
    <path d="M264.3406 3.23 892.284 70.8724C912.5997 73.0607 928 90.209 928 110.6422v766.0843c0 21.1708-16.4962 38.6753-37.6298 39.9297l-627.9435 37.2735-.6884.035c-12.6002.5352-24.0649-4.8241-31.7668-13.602l-.4005-.4647-75.122-10.104-47.26 2.5907C84.2718 933.6407 65 915.3962 65 892.4447V80.2226c0-18.4946 12.6792-34.5778 30.6629-38.895L250.7195 4.105a40 40 0 0 1 13.621-.875ZM270 126.98l.0017 201.6702c.0009.0563.0014.1127.0014.1691v101.1151l-.0031.1686V913.41l618-36.6835V185.308L270 126.98ZM164.03 428.6107l-.033 462.1073L250 902.285l.0011-451.5889c-9.4862 5.3847-20.077 8.3039-31.096 8.3039-22.2403 0-42.087-11.8404-54.8751-30.3893ZM250 45.414 105 80.2228v812.2218l38.997-2.1376.0348-488.3592c-13.9732-1.6889-24.6872-7.5887-29.366-18.0975-7.8526-17.637 5.3177-39.2204 29.331-56.257l.001-228.4693c0-4.6947 3.2659-8.7573 7.8508-9.7663L250 67.757V45.414Zm-45.813 344.859c-10.7842 4.8016-21.6059 8.2337-31.847 10.2079C179.568 423.3411 198.0736 439 218.905 439l.5803-.004c11.0146-.152 21.4942-4.6306 30.0474-12.6603l.4673-.4447.0027-68.4189c-10.183 12.4389-26.3887 24.1516-45.8156 32.801Zm-26.258-58.9767c-15.7167 6.9975-29.043 16.3862-37.3546 25.9534-7.0543 8.1198-9.2579 14.827-7.6377 18.4659 1.6202 3.639 8.079 6.4893 18.8334 6.6802a66.597 66.597 0 0 0 3.7302-.041c1.0663-.5389 2.249-.8934 3.5119-1.0188 11.2096-1.1139 23.846-4.5762 36.3275-10.0992 15.9343-7.0514 29.4456-16.5125 37.8736-26.1545 5.6916-6.5114 8.2692-12.1197 8.2577-15.9886-.0803-.5501-.2233-1.0546-.4264-1.5108-1.6202-3.639-8.079-6.4893-18.8335-6.6802-12.6714-.225-28.5656 3.3961-44.2822 10.3936ZM250 88.236l-86.0018 18.926-.0012 208.5816a162.9076 162.9076 0 0 1 5.7972-2.7182c31.593-14.0661 63.5062-16.3803 80.2075-4.7148L250 88.236Zm20.001-44.081v62.736L888 165.219v-53.337L270.001 44.155Z"/>
</svg>
