<svg xmlns="http://www.w3.org/2000/svg" viewBox="0 0 960 960"><path d="M875.6178 8C907.3091 8 933 33.6909 933 65.3822V840.991c0 29.8276-22.852 54.6816-52.5749 57.1804l-694.356 58.376a57.3821 57.3821 0 0 1-23.8451-3.0485l-94.8798-33.3687C44.3712 912.0508 29 890.3507 29 865.9983V65.3822C29 33.6909 54.6909 8 86.3822 8zm0 40-682.555-.0004c-2.9932 1.4894-5.0535 4.5757-5.0628 8.1467v849.1853c0 5.037 4.0833 9.1204 9.1204 9.1204.2364 0 .4728-.0092.7086-.0276l157.394-12.2657c.223-.0174.445-.0273.6655-.03l521.1856-43.8166c9.0036-.757 15.9259-8.2856 15.9259-17.321V65.382C893 55.7824 885.2177 48 875.6178 48zm-706.4561 0H86.3822C76.7822 48 69 55.7823 69 65.3822v800.6161c0 7.3768 4.6562 13.9502 11.6152 16.3976l88.5581 31.1456c-.7636-2.6038-1.1733-5.359-1.1733-8.2099V56.0946c.0073-2.81.4123-5.5259 1.1617-8.0947z"/></svg>
