<svg xmlns="http://www.w3.org/2000/svg" viewBox="0 0 960 960">
    <path d="M280.6825 76.2022c90.0516-34.2528 183.2656-25.9395 269.2149 19.9805 79.2816 42.3578 148.9463 115.197 197.9741 205.2466.268.4921.536.984.804 1.4755l1.6098 2.9472c7.2525 13.2562 14.6404 26.4711 23.1086 41.3845l3.4826 6.1223 14.8273 25.907 17.0886 29.8958c5.5485 9.775 10.4484 18.505 15.166 27.038l2.5195 4.5697a1985.2028 1985.2028 0 0 1 3.962 7.2424l.9941 1.8303 1.1455-.1222c.3316-.0337.651-.0646.9575-.0925l.3617-.0321c13.1287-1.1319 25.034 1.383 34.4327 7.019 10.1926 6.112 17.3134 15.8191 17.3134 27.0453l.0088.9017c.0684.4483.1738 1.06.3171 1.838l.3072 1.612 1.6235 8.2232.5479 2.866c1.378 7.3566 2.0663 12.3301 2.05 16.7378l-.0201 2.9319-.039 2.8972c-.2354 14.5555-.9103 21.87-4.0475 28.1197a40.8369 40.8369 0 0 1-2.6697 4.5554l-.209.3016 1.0258 2.176c35.9077 76.4117 54.123 135.3273 54.5127 185.3174v1.6095c0 57.1234-30.245 98.5084-81.8284 125.1953-35.6717 18.455-77.2038 28.394-124.6497 33.8097-40.1222 4.5797-92.7563-1.299-145.2974-18.8968-66.363-22.2271-128.8917-61.3627-182.636-118.733l-.673-.7284-.4323-.4784c-.6814-.7675-1.2824-1.5115-1.9019-2.4058-.809-1.1681-1.5237-2.4018-2.178-3.9984l-.1558-.3891-1.155-1.2563c-1.2189-1.3158-2.3402-2.4937-3.3641-3.532l-.1679-.1697-.6566.2214c-10.1805 3.3873-19.4594 3.9893-28.0795 1.7138l-.5737-.156c-6.8896-1.9274-11.4892-4.7745-17.6616-9.752l-2.0065-1.6192c-.8086-.6424-1.329-1.027-1.7085-1.2725l-.0636-.0407-.091-.0558-.2012-.0763-.406-.165-.4023-.174-16.0165-7.1327-2.3189-.8574-21.7361-7.9812c-23.0813-8.5251-39.031-14.8189-54.4842-21.819l-1.364-.6203c-4.998-2.2818-9.9644-4.6468-15.1248-7.1948-29.9287-14.778-58.6495-32.6653-88.8478-55.9838-49.0921-37.908-80.9407-70.5208-98.7169-99.0846-14.3504-23.059-19.0597-42.3117-17.4001-60.4634a797.0584 797.0584 0 0 1 2.228-21.2424c9.4289-79.5495 30.2492-153.3034 64.809-216.1157 42.6547-77.5248 104.326-134.6846 186.8923-166.0902ZM839.387 551.2917l-.361.0042c-.3893.0054-.7871.0128-1.193.0223l-.6149.0158c-8.4068.2354-19.0455 1.2848-31.5514 3.28l-2.02.3278c-33.1599 5.4683-74.3894 16.5907-123.333 34.4383-70.5414 25.7236-158.794 68.3478-264.6688 127.8616 4.3457 3.403 9.116 8.328 15.516 15.4784l.9071 1.0171c1.0411 1.171 1.8904 2.1897 2.6265 3.175 1.0946 1.465 1.9666 2.7974 2.6924 4.4229l.1482.3439.7373.768c47.5769 49.3464 102.161 83.212 159.9029 102.8693l1.8054.6097c47.0773 15.7677 93.8355 20.9902 128.0575 17.084 43.0287-4.9116 80.3665-13.8468 110.806-29.5948 39.2717-20.3175 60.2084-48.9657 60.2084-89.6683 0-45.9806-19.0434-104.8688-57.6706-184.475-1.245-2.5659-1.8949-5.281-1.995-7.9802Zm1.7577-59.8572c-16.1328 1.3908-56.4694 9.5854-100.6387 22.0944l-1.3396.3804c-65.6037 18.6764-134.4214 44.779-202.807 79.0052l-2.331 1.17c-108.3036 54.5053-176.8819 84.3236-213.9109 94.5229l21.142 7.768c.3996.1482.7945.3092 1.1839.4826l16.1007 7.17.3832.1511c4.1683 1.6716 7.4254 3.782 11.4195 6.9391l.5253.4178 2.3629 1.9063c1.0945.8725 1.748 1.3506 2.2796 1.6796l.119.0725c.258.1547.3818.2099.4464.228l.0215.0049.0881.0119c.154.016.3675.0206.6603.0035 1.0552-.0615 2.5284-.3628 4.427-.9944l.5541-.186c.7747-.9848 1.7487-1.8396 2.904-2.4988 116.151-66.271 212.3576-113.3243 288.727-141.173l3.0564-1.1096c49.7656-17.9836 91.8794-29.1736 125.9972-34.617l1.492-.235c20.566-3.197 37.208-4.0269 45.9581-2.8458l.0181-.2056.0259-.3086c.238-2.9137.389-6.825.4544-11.4798l.0121-.9534.0238-3.2073c.004-1.0919-.5514-4.9033-1.5864-10.3242l-.1914-.9956-1.7322-8.7836-.3899-2.0529c-.1453-.7876-.272-1.5015-.3814-2.163-1.595-.0669-3.2884-.0285-5.074.1254Zm-767.8608-4.0207-.4066.4857c-1.624 1.9353-3.8249 3.1007-6.14 3.4559.9201 7.2335 4.0373 15.5914 10.6463 26.4378l.7304 1.1859c14.9325 23.9944 43.5831 53.3326 89.2033 88.5596 28.086 21.6875 54.5487 38.1684 82.1104 51.7776a537.2889 537.2889 0 0 0 6.459 3.137l1.2779.6077c.851.4032 1.7003.8027 2.5495 1.199l1.2736.5923 1.2742.5879 1.2758.584 1.2783.5807c7.5305 3.4071 15.2429 6.6585 24.0346 10.148 1.82-2.4716 4.7506-4.075 8.0557-4.075 6.5893 0 19.2329-3.1176 38.2275-9.8897a388.5426 388.5426 0 0 1-1.6005-1.9324l-7.0692-4.3737c-35.1219-21.7957-61.866-39.293-80.28-52.5305l-.5976-.4302c-19.8925-14.3413-41.7251-32.1569-65.5162-53.4521a10.1155 10.1155 0 0 1-.7425-.737c-18.223-.5888-33.7478-3.1682-47.262-7.6773-16.9754-5.664-30.3693-14.0752-43.7812-26.3867-8.704-7.99-13.6734-17.3778-15.0007-27.8545Zm457.7644-355.9507c-76.0555-40.634-157.2668-47.8769-236.145-17.8742-73.2415 27.8588-127.7903 78.4172-166.0675 147.9858-31.8102 57.815-51.2658 126.7345-60.1325 201.5415l.1521-1.2618c3.9828-4.5026 7.4776-8.2362 11.1144-11.8536l.86-.8506a224.455 224.455 0 0 1 1.743-1.6959c10.4965-10.1035 20.6735-17.571 31.2852-22.3572 26.9103-12.1376 54.3333-5.7987 81.464 21.775 4.0801 4.1466 8.2411 8.5715 12.483 13.2669 12.8162 14.1861 26.2245 30.6658 40.3466 49.3542l2.8668 3.8109 1.482 1.9827a1229.981 1229.981 0 0 1 2.3595 3.174l1.5688 2.122c10.9738 14.8771 21.8162 30.2698 34.6075 48.9259l19.573 28.6775 3.127 4.5229c3.0676 4.4066 5.3043 7.5125 6.9654 9.6627l11.2955 14.4475c6.8853 8.7852 11.8677 15.0538 16.0348 20.1327l1.935 2.3433c1.9855 2.3869 3.6909 4.3774 5.1046 5.9554.4813-.1925.9678-.386 1.4571-.5812l.9482-.3789c38.5276-15.423 92.383-40.3262 163.2035-75.8812l4.3571-2.1901c70.3321-35.3957 141.1402-62.3258 208.6529-81.5457l2.745-.7774c23.6063-6.6504 46.1303-12.0968 64.6947-15.9789-3.5593-6.6458-7.2136-13.365-11.0227-20.2725-4.8462-8.7882-9.8593-17.7337-15.5741-27.8083l-4.779-8.4018-19.7912-34.5633-11.4662-20.084c-7.9916-14.0757-15.0461-26.682-21.9401-39.2492l-1.5884-2.9001-2.2273-4.0818c-45.4514-83.4807-109.6462-150.601-181.6927-189.0932Zm-283.3228 411.119-.1499.0354c-5.085 1.1577-11.6382 2.3845-18.3244 3.4522l-1.288.2034-1.633.2515c-6.262.9505-12.4708 1.7327-17.5347 2.1597 16.9632 14.6119 32.777 27.2298 47.4335 37.8521l2.2268 1.605c10.337 7.4096 23.3984 16.2254 39.1755 26.44a953.556 953.556 0 0 1-2.1295-3.0713l-3.829-5.581-13.7369-20.1499c-11.2127-16.4148-20.8473-30.238-30.2104-43.1972Zm-125.6445-99.2537c-7.327 3.3048-14.7824 8.544-22.6514 15.7326a9.3295 9.3295 0 0 1-.3143.6854c-9.2356 18.2174-8.0667 30.9103 2.6942 40.7883 11.4592 10.5191 22.486 17.4438 36.5864 22.1485 16.9871 5.6678 38.3244 7.8881 66.1124 6.261l1.0923-.071c5.0563-.358 11.966-1.2345 18.8135-2.2915l1.9281-.3026 2.5805-.4207a351.463 351.463 0 0 0 5.7572-1.0067c-.1336-.1775-.2667-.3548-.3998-.5322l-2.0753-2.7556c-13.7983-18.2604-26.8533-34.3064-39.2403-48.0175-4.0571-4.4909-8.0243-8.7096-11.8986-12.6472-21.478-21.8286-40.0348-26.118-58.9849-17.5708Z"/>
</svg>
