<svg xmlns="http://www.w3.org/2000/svg" viewBox="0 0 320 320"><path fill-rule="evenodd" d="M160 320c-42.526 0-77-34.474-77-77V77c0-42.526 34.474-77 77-77s77 34.474 77 77v166c0 42.526-34.474 77-77 77Zm0-10c36.633 0 66.3994-29.4 66.991-65.892L227 243V77c0-37.003-29.997-67-67-67-36.633 0-66.3994 29.4-66.991 65.892L93 77v166c0 37.003 29.997 67 67 67Zm0-230c-9.3888 0-17-7.6112-17-17s7.6112-17 17-17 17 7.6112 17 17-7.6112 17-17 17Zm0-10c3.866 0 7-3.134 7-7s-3.134-7-7-7-7 3.134-7 7 3.134 7 7 7Zm0 235c-34.2417 0-62-27.7583-62-62s27.7583-62 62-62 62 27.7583 62 62-27.7583 62-62 62Zm44.0007-34.2756L204 249h7.6576a52.5533 52.5533 0 0 0 .3424-6 52.47 52.47 0 0 0-.4673-7.0014L204 236l.0007-20.7244c-8.372-13.259-22.5713-22.471-39.0007-24.0383V205h-10l-.001-13.7626c-16.4298 1.5677-30.6294 10.7804-39.001 24.0402L116 236l-7.5327-.0014A52.4734 52.4734 0 0 0 108 243c0 2.0293.1162 4.0314.3424 6H116l-.002 21.7224c8.3716 13.2598 22.5712 22.4725 39.001 24.0402L155 281h10v13.7627c16.4294-1.5674 30.6288-10.7793 39.0007-24.0383ZM185.5 251.5c-4.6944 0-8.5-3.8056-8.5-8.5s3.8056-8.5 8.5-8.5 8.5 3.8056 8.5 8.5-3.8056 8.5-8.5 8.5Zm-51 0c-4.6944 0-8.5-3.8056-8.5-8.5s3.8056-8.5 8.5-8.5 8.5 3.8056 8.5 8.5-3.8056 8.5-8.5 8.5Z"/></svg>
